<svg xmlns="http://www.w3.org/2000/svg" xmlns:xlink="http://www.w3.org/1999/xlink" contentStyleType="text/css" data-diagram-type="ACTIVITY" height="818px" preserveAspectRatio="none" style="width:743px;height:818px;background:#FFFFFF;" version="1.1" viewBox="0 0 743 818" width="743px" zoomAndPan="magnify"><defs/><g><ellipse cx="198.6948" cy="20" fill="#222222" rx="10" ry="10" style="stroke:#222222;stroke-width:1;"/><rect fill="#F1F1F1" height="33.9688" rx="12.5" ry="12.5" style="stroke:#181818;stroke-width:0.5;" width="296.0762" x="50.6567" y="50"/><text fill="#000000" font-family="sans-serif" font-size="12" lengthAdjust="spacing" textLength="276.0762" x="60.6567" y="71.1387">Homeowner navigates to House Rules section</text><rect fill="#F1F1F1" height="33.9688" rx="12.5" ry="12.5" style="stroke:#181818;stroke-width:0.5;" width="199.6133" x="98.8882" y="147.9688"/><text fill="#000000" font-family="sans-serif" font-size="12" lengthAdjust="spacing" textLength="179.6133" x="108.8882" y="169.1074">System shows rule categories</text><rect fill="#F1F1F1" height="33.9688" rx="12.5" ry="12.5" style="stroke:#181818;stroke-width:0.5;" width="206.252" x="95.5688" y="245.9375"/><text fill="#000000" font-family="sans-serif" font-size="12" lengthAdjust="spacing" textLength="186.252" x="105.5688" y="267.0762">Homeowner selects a category</text><polygon fill="#F1F1F1" points="198.6948,303.8052,210.6948,315.8052,198.6948,327.8052,186.6948,315.8052,198.6948,303.8052" style="stroke:#181818;stroke-width:0.5;"/><text fill="#000000" font-family="sans-serif" font-size="11" lengthAdjust="spacing" textLength="114.3721" x="204.6948" y="301.2109">Use predefined rule?</text><text fill="#000000" font-family="sans-serif" font-size="11" lengthAdjust="spacing" textLength="19.0083" x="167.6865" y="313.2109">yes</text><text fill="#000000" font-family="sans-serif" font-size="11" lengthAdjust="spacing" textLength="13.7017" x="210.6948" y="313.2109">no</text><rect fill="#F1F1F1" height="33.9688" rx="12.5" ry="12.5" style="stroke:#181818;stroke-width:0.5;" width="167.6504" x="11" y="337.8052"/><text fill="#000000" font-family="sans-serif" font-size="12" lengthAdjust="spacing" textLength="147.6504" x="21" y="358.9438">Homeowner toggles rule</text><rect fill="#F1F1F1" height="33.9688" rx="12.5" ry="12.5" style="stroke:#181818;stroke-width:0.5;" width="207.8281" x="198.6504" y="337.8052"/><text fill="#000000" font-family="sans-serif" font-size="12" lengthAdjust="spacing" textLength="187.8281" x="208.6504" y="358.9438">Homeowner writes custom rule</text><polygon fill="#F1F1F1" points="198.6948,377.7739,210.6948,389.7739,198.6948,401.7739,186.6948,389.7739,198.6948,377.7739" style="stroke:#181818;stroke-width:0.5;"/><rect fill="#F1F1F1" height="33.9688" rx="12.5" ry="12.5" style="stroke:#181818;stroke-width:0.5;" width="285.4238" x="55.9829" y="427.856"/><text fill="#000000" font-family="sans-serif" font-size="12" lengthAdjust="spacing" textLength="265.4238" x="65.9829" y="448.9946">Homeowner adds specific details/comments</text><polygon fill="#F1F1F1" points="198.6948,201.9375,210.6948,213.9375,198.6948,225.9375,186.6948,213.9375,198.6948,201.9375" style="stroke:#181818;stroke-width:0.5;"/><polygon fill="#F1F1F1" points="198.6948,481.8247,210.6948,493.8247,198.6948,505.8247,186.6948,493.8247,198.6948,481.8247" style="stroke:#181818;stroke-width:0.5;"/><text fill="#000000" font-family="sans-serif" font-size="11" lengthAdjust="spacing" textLength="90.1055" x="210.6948" y="491.2305">Add more rules?</text><rect fill="#F1F1F1" height="33.9688" rx="12.5" ry="12.5" style="stroke:#181818;stroke-width:0.5;" width="162.6641" x="117.3628" y="525.8247"/><text fill="#000000" font-family="sans-serif" font-size="12" lengthAdjust="spacing" textLength="142.6641" x="127.3628" y="546.9634">Homeowner clicks Save</text><rect fill="#F1F1F1" height="33.9688" rx="12.5" ry="12.5" style="stroke:#181818;stroke-width:0.5;" width="156.3184" x="120.5356" y="579.7935"/><text fill="#000000" font-family="sans-serif" font-size="12" lengthAdjust="spacing" textLength="136.3184" x="130.5356" y="600.9321">System validates rules</text><polygon fill="#F1F1F1" points="198.6948,103.9688,210.6948,115.9688,198.6948,127.9688,186.6948,115.9688,198.6948,103.9688" style="stroke:#181818;stroke-width:0.5;"/><polygon fill="#F1F1F1" points="198.6948,633.7622,210.6948,645.7622,198.6948,657.7622,186.6948,645.7622,198.6948,633.7622" style="stroke:#181818;stroke-width:0.5;"/><text fill="#000000" font-family="sans-serif" font-size="11" lengthAdjust="spacing" textLength="178.3687" x="210.6948" y="643.168">Mandatory safety rules present?</text><rect fill="#F1F1F1" height="33.9688" rx="12.5" ry="12.5" style="stroke:#181818;stroke-width:0.5;" width="298.332" x="434.4785" y="363.8872"/><text fill="#000000" font-family="sans-serif" font-size="12" lengthAdjust="spacing" textLength="278.332" x="444.4785" y="385.0259">System warns about missing mandatory fields</text><rect fill="#F1F1F1" height="33.9688" rx="12.5" ry="12.5" style="stroke:#181818;stroke-width:0.5;" width="157.0918" x="120.1489" y="677.7622"/><text fill="#000000" font-family="sans-serif" font-size="12" lengthAdjust="spacing" textLength="137.0918" x="130.1489" y="698.9009">System updates listing</text><rect fill="#F1F1F1" height="33.9688" rx="12.5" ry="12.5" style="stroke:#181818;stroke-width:0.5;" width="202.3145" x="97.5376" y="731.731"/><text fill="#000000" font-family="sans-serif" font-size="12" lengthAdjust="spacing" textLength="182.3145" x="107.5376" y="752.8696">System confirms rules are live</text><ellipse cx="198.6948" cy="796.6997" fill="none" rx="11" ry="11" style="stroke:#222222;stroke-width:1;"/><ellipse cx="198.6948" cy="796.6997" fill="#222222" rx="6" ry="6" style="stroke:#222222;stroke-width:1;"/><line style="stroke:#181818;stroke-width:1;" x1="198.6948" x2="198.6948" y1="30" y2="50"/><polygon fill="#181818" points="194.6948,40,198.6948,50,202.6948,40,198.6948,44" style="stroke:#181818;stroke-width:1;"/><line style="stroke:#181818;stroke-width:1;" x1="186.6948" x2="94.8252" y1="315.8052" y2="315.8052"/><line style="stroke:#181818;stroke-width:1;" x1="94.8252" x2="94.8252" y1="315.8052" y2="337.8052"/><polygon fill="#181818" points="90.8252,327.8052,94.8252,337.8052,98.8252,327.8052,94.8252,331.8052" style="stroke:#181818;stroke-width:1;"/><line style="stroke:#181818;stroke-width:1;" x1="210.6948" x2="302.5645" y1="315.8052" y2="315.8052"/><line style="stroke:#181818;stroke-width:1;" x1="302.5645" x2="302.5645" y1="315.8052" y2="337.8052"/><polygon fill="#181818" points="298.5645,327.8052,302.5645,337.8052,306.5645,327.8052,302.5645,331.8052" style="stroke:#181818;stroke-width:1;"/><line style="stroke:#181818;stroke-width:1;" x1="94.8252" x2="94.8252" y1="371.7739" y2="389.7739"/><line style="stroke:#181818;stroke-width:1;" x1="94.8252" x2="186.6948" y1="389.7739" y2="389.7739"/><polygon fill="#181818" points="176.6948,385.7739,186.6948,389.7739,176.6948,393.7739,180.6948,389.7739" style="stroke:#181818;stroke-width:1;"/><line style="stroke:#181818;stroke-width:1;" x1="302.5645" x2="302.5645" y1="371.7739" y2="389.7739"/><line style="stroke:#181818;stroke-width:1;" x1="302.5645" x2="210.6948" y1="389.7739" y2="389.7739"/><polygon fill="#181818" points="220.6948,385.7739,210.6948,389.7739,220.6948,393.7739,216.6948,389.7739" style="stroke:#181818;stroke-width:1;"/><line style="stroke:#181818;stroke-width:1;" x1="198.6948" x2="198.6948" y1="279.9063" y2="303.8052"/><polygon fill="#181818" points="194.6948,293.8052,198.6948,303.8052,202.6948,293.8052,198.6948,297.8052" style="stroke:#181818;stroke-width:1;"/><line style="stroke:#181818;stroke-width:1;" x1="198.6948" x2="198.6948" y1="401.7739" y2="427.856"/><polygon fill="#181818" points="194.6948,417.856,198.6948,427.856,202.6948,417.856,198.6948,421.856" style="stroke:#181818;stroke-width:1;"/><line style="stroke:#181818;stroke-width:1;" x1="198.6948" x2="198.6948" y1="225.9375" y2="245.9375"/><polygon fill="#181818" points="194.6948,235.9375,198.6948,245.9375,202.6948,235.9375,198.6948,239.9375" style="stroke:#181818;stroke-width:1;"/><line style="stroke:#181818;stroke-width:1;" x1="210.6948" x2="420.4785" y1="493.8247" y2="493.8247"/><polygon fill="#181818" points="416.4785,356.3872,420.4785,346.3872,424.4785,356.3872,420.4785,352.3872" style="stroke:#181818;stroke-width:1;"/><line style="stroke:#181818;stroke-width:1;" x1="420.4785" x2="420.4785" y1="213.9375" y2="493.8247"/><line style="stroke:#181818;stroke-width:1;" x1="420.4785" x2="210.6948" y1="213.9375" y2="213.9375"/><polygon fill="#181818" points="220.6948,209.9375,210.6948,213.9375,220.6948,217.9375,216.6948,213.9375" style="stroke:#181818;stroke-width:1;"/><line style="stroke:#181818;stroke-width:1;" x1="198.6948" x2="198.6948" y1="461.8247" y2="481.8247"/><polygon fill="#181818" points="194.6948,471.8247,198.6948,481.8247,202.6948,471.8247,198.6948,475.8247" style="stroke:#181818;stroke-width:1;"/><line style="stroke:#181818;stroke-width:1;" x1="198.6948" x2="198.6948" y1="181.9375" y2="201.9375"/><polygon fill="#181818" points="194.6948,191.9375,198.6948,201.9375,202.6948,191.9375,198.6948,195.9375" style="stroke:#181818;stroke-width:1;"/><line style="stroke:#181818;stroke-width:1;" x1="198.6948" x2="198.6948" y1="505.8247" y2="525.8247"/><polygon fill="#181818" points="194.6948,515.8247,198.6948,525.8247,202.6948,515.8247,198.6948,519.8247" style="stroke:#181818;stroke-width:1;"/><line style="stroke:#181818;stroke-width:1;" x1="198.6948" x2="198.6948" y1="559.7935" y2="579.7935"/><polygon fill="#181818" points="194.6948,569.7935,198.6948,579.7935,202.6948,569.7935,198.6948,573.7935" style="stroke:#181818;stroke-width:1;"/><line style="stroke:#181818;stroke-width:1;" x1="198.6948" x2="198.6948" y1="127.9688" y2="147.9688"/><polygon fill="#181818" points="194.6948,137.9688,198.6948,147.9688,202.6948,137.9688,198.6948,141.9688" style="stroke:#181818;stroke-width:1;"/><line style="stroke:#181818;stroke-width:1;" x1="210.6948" x2="583.6445" y1="645.7622" y2="645.7622"/><line style="stroke:#181818;stroke-width:1;" x1="583.6445" x2="583.6445" y1="397.856" y2="645.7622"/><polygon fill="#181818" points="579.6445,407.856,583.6445,397.856,587.6445,407.856,583.6445,403.856" style="stroke:#181818;stroke-width:1;"/><line style="stroke:#181818;stroke-width:1;" x1="583.6445" x2="583.6445" y1="115.9688" y2="363.8872"/><line style="stroke:#181818;stroke-width:1;" x1="583.6445" x2="210.6948" y1="115.9688" y2="115.9688"/><polygon fill="#181818" points="220.6948,111.9688,210.6948,115.9688,220.6948,119.9688,216.6948,115.9688" style="stroke:#181818;stroke-width:1;"/><line style="stroke:#181818;stroke-width:1;" x1="198.6948" x2="198.6948" y1="613.7622" y2="633.7622"/><polygon fill="#181818" points="194.6948,623.7622,198.6948,633.7622,202.6948,623.7622,198.6948,627.7622" style="stroke:#181818;stroke-width:1;"/><line style="stroke:#181818;stroke-width:1;" x1="198.6948" x2="198.6948" y1="83.9688" y2="103.9688"/><polygon fill="#181818" points="194.6948,93.9688,198.6948,103.9688,202.6948,93.9688,198.6948,97.9688" style="stroke:#181818;stroke-width:1;"/><line style="stroke:#181818;stroke-width:1;" x1="198.6948" x2="198.6948" y1="657.7622" y2="677.7622"/><polygon fill="#181818" points="194.6948,667.7622,198.6948,677.7622,202.6948,667.7622,198.6948,671.7622" style="stroke:#181818;stroke-width:1;"/><line style="stroke:#181818;stroke-width:1;" x1="198.6948" x2="198.6948" y1="711.731" y2="731.731"/><polygon fill="#181818" points="194.6948,721.731,198.6948,731.731,202.6948,721.731,198.6948,725.731" style="stroke:#181818;stroke-width:1;"/><line style="stroke:#181818;stroke-width:1;" x1="198.6948" x2="198.6948" y1="765.6997" y2="785.6997"/><polygon fill="#181818" points="194.6948,775.6997,198.6948,785.6997,202.6948,775.6997,198.6948,779.6997" style="stroke:#181818;stroke-width:1;"/><!--SRC=[TLAxSeD03Epv2fMuIc-AJ3etQUB91yXt0cjy3-OapF3t4HZis9DGmTtkQdU5N3ZrM322oycpSav7dGA1PunsKebYqQhQ7tAaF2OgaF3A7Ie9Q8P37eJWQmZsAUHcVbDLXNf2hS2U_N4IfGXopgD0CI0u8tUvC4cpG7wX5yPZb50mJG7SE5DpXt4BzRVDxWjvQZcHNzJVTw1dIb1F9Bix-4LNSzVDZcV2Gv62oTKf_qiR2y-ntI2QuolPscl_oe3UMpKzEMxPWIT53lBcSeoKzAa16CzizTGVtaFCXPO9Oe5OrZZLYxOBx2u2HxokJhQshnZOBpjQD6mb9tIN4OlV4FQUhDXJ7XGYYt3g868oahKCBLFmHdiszdc_5sn9fvlul06nBAjHwmzIritnDc_eRtu2Yzgivd5ZFrxB9QvM0Iruu3cGjTp_0000]--></g></svg>