<svg xmlns="http://www.w3.org/2000/svg" xmlns:xlink="http://www.w3.org/1999/xlink" contentStyleType="text/css" data-diagram-type="DESCRIPTION" height="427px" preserveAspectRatio="none" style="width:741px;height:427px;background:#FFFFFF;" version="1.1" viewBox="0 0 741 427" width="741px" zoomAndPan="magnify"><defs/><g><!--cluster CoNest Platform--><g class="cluster" data-entity="CoNest Platform" data-source-line="6" data-uid="ent0004" id="cluster_CoNest Platform"><rect fill="none" height="342" rx="2.5" ry="2.5" style="stroke:#181818;stroke-width:1;" width="597" x="138" y="7"/><text fill="#000000" font-family="sans-serif" font-size="14" font-weight="bold" lengthAdjust="spacing" textLength="129.4043" x="371.7979" y="21.9951">CoNest Platform</text></g><!--entity UC001--><g class="entity" data-entity="UC001" data-source-line="8" data-uid="ent0005" id="entity_UC001"><ellipse cx="258.9026" cy="64.7805" fill="#F1F1F1" rx="99.4026" ry="22.2805" style="stroke:#181818;stroke-width:0.5;"/><text fill="#000000" font-family="sans-serif" font-size="14" lengthAdjust="spacing" textLength="174.7402" x="171.5325" y="69.429">Find and Secure Housing</text></g><!--entity UC004--><g class="entity" data-entity="UC004" data-source-line="9" data-uid="ent0006" id="entity_UC004"><ellipse cx="603.9725" cy="64.9945" fill="#F1F1F1" rx="102.9725" ry="22.9945" style="stroke:#181818;stroke-width:0.5;"/><text fill="#000000" font-family="sans-serif" font-size="14" lengthAdjust="spacing" textLength="182.5879" x="512.6786" y="69.6429">Match and Contact Owner</text></g><!--entity UC003--><g class="entity" data-entity="UC003" data-source-line="14" data-uid="ent0009" id="entity_UC003"><ellipse cx="604.202" cy="308.8404" fill="#F1F1F1" rx="94.702" ry="21.3404" style="stroke:#181818;stroke-width:0.5;"/><text fill="#000000" font-family="sans-serif" font-size="14" lengthAdjust="spacing" textLength="164.3086" x="522.0477" y="313.4888">Select Suitable Student</text></g><!--entity UC005--><g class="entity" data-entity="UC005" data-source-line="15" data-uid="ent0010" id="entity_UC005"><ellipse cx="258.7601" cy="227.752" fill="#F1F1F1" rx="104.2601" ry="23.252" style="stroke:#181818;stroke-width:0.5;"/><text fill="#000000" font-family="sans-serif" font-size="14" lengthAdjust="spacing" textLength="185.4043" x="166.058" y="232.4005">Manage Trial Living Period</text></g><!--entity UC002--><g class="entity" data-entity="UC002" data-source-line="23" data-uid="ent0015" id="entity_UC002"><ellipse cx="259.1997" cy="145.9399" fill="#F1F1F1" rx="105.1997" ry="23.4399" style="stroke:#181818;stroke-width:0.5;"/><text fill="#000000" font-family="sans-serif" font-size="14" lengthAdjust="spacing" textLength="187.4551" x="165.4722" y="150.5884">Offer and Manage Housing</text></g><!--entity UC006--><g class="entity" data-entity="UC006" data-source-line="24" data-uid="ent0016" id="entity_UC006"><ellipse cx="603.9411" cy="143.7882" fill="#F1F1F1" rx="86.9411" ry="19.7882" style="stroke:#181818;stroke-width:0.5;"/><text fill="#000000" font-family="sans-serif" font-size="14" lengthAdjust="spacing" textLength="146.7813" x="530.5505" y="148.4367">Manage House Rules</text></g><!--entity UC007--><g class="entity" data-entity="UC007" data-source-line="25" data-uid="ent0017" id="entity_UC007"><ellipse cx="604.0572" cy="224.9114" fill="#F1F1F1" rx="115.0572" ry="25.4114" style="stroke:#181818;stroke-width:0.5;"/><text fill="#000000" font-family="sans-serif" font-size="14" lengthAdjust="spacing" textLength="208.7764" x="499.669" y="229.5599">Specify Household Assistance</text></g><!--entity UC008--><g class="entity" data-entity="UC008" data-source-line="26" data-uid="ent0018" id="entity_UC008"><ellipse cx="259.0171" cy="309.9034" fill="#F1F1F1" rx="102.5171" ry="22.9034" style="stroke:#181818;stroke-width:0.5;"/><text fill="#000000" font-family="sans-serif" font-size="14" lengthAdjust="spacing" textLength="181.5898" x="168.2221" y="314.5518">Give Feedback to Student</text></g><!--entity S--><g class="entity" data-entity="S" data-source-line="3" data-uid="ent0002" id="entity_S"><ellipse cx="48.5557" cy="98.5" fill="#F1F1F1" rx="8" ry="8" style="stroke:#181818;stroke-width:0.5;"/><path d="M48.5557,106.5 L48.5557,133.5 M35.5557,114.5 L61.5557,114.5 M48.5557,133.5 L35.5557,148.5 M48.5557,133.5 L61.5557,148.5" fill="none" style="stroke:#181818;stroke-width:0.5;"/><text fill="#000000" font-family="sans-serif" font-size="14" lengthAdjust="spacing" textLength="55.1113" x="21" y="162.9951">Student</text></g><!--entity H--><g class="entity" data-entity="H" data-source-line="4" data-uid="ent0003" id="entity_H"><ellipse cx="48.3008" cy="215.5" fill="#F1F1F1" rx="8" ry="8" style="stroke:#181818;stroke-width:0.5;"/><path d="M48.3008,223.5 L48.3008,250.5 M35.3008,231.5 L61.3008,231.5 M48.3008,250.5 L35.3008,265.5 M48.3008,250.5 L61.3008,265.5" fill="none" style="stroke:#181818;stroke-width:0.5;"/><text fill="#000000" font-family="sans-serif" font-size="14" lengthAdjust="spacing" textLength="84.6016" x="6" y="279.9951">Homeowner</text></g><!--link S to UC001--><g class="link" data-entity-1="S" data-entity-2="UC001" data-source-line="11" data-uid="lnk7" id="link_S_UC001"><path d="M76.31,119.7 C89.72,115.56 106.21,110.49 121,106 C146.18,98.36 174,90.02 197.95,82.86" fill="none" id="S-UC001" style="stroke:#181818;stroke-width:1;"/></g><!--link UC001 to UC004--><g class="link" data-entity-1="UC001" data-entity-2="UC004" data-source-line="12" data-uid="lnk8" id="link_UC001_UC004"><path d="M358.75,65 C403.28,65 449.84,65 494.78,65" fill="none" id="UC001-to-UC004" style="stroke:#181818;stroke-width:1;stroke-dasharray:7,7;"/><polygon fill="#181818" points="500.78,65,491.78,61,495.78,65,491.78,69,500.78,65" style="stroke:#181818;stroke-width:1;"/><text fill="#000000" font-family="sans-serif" font-size="13" lengthAdjust="spacing" textLength="63.0068" x="395" y="61.0669">&#171;include&#187;</text></g><!--link H to UC003--><g class="link" data-entity-1="H" data-entity-2="UC003" data-source-line="17" data-uid="lnk11" id="link_H_UC003"><path d="M67.37,283.21 C80.86,307.2 101.88,336.13 130,350 C273.03,420.57 470.08,361.04 557.76,327.76" fill="none" id="H-UC003" style="stroke:#181818;stroke-width:1;"/></g><!--link UC005 to UC003--><g class="link" data-entity-1="UC005" data-entity-2="UC003" data-source-line="19" data-uid="lnk12" id="link_UC005_UC003"><path d="M331.9,244.98 C392.7,259.34 473.2207,278.3506 532.0207,292.2406" fill="none" id="UC005-to-UC003" style="stroke:#181818;stroke-width:1;stroke-dasharray:7,7;"/><polygon fill="#181818" points="537.86,293.62,530.0207,287.6581,532.9939,292.4705,528.1815,295.4438,537.86,293.62" style="stroke:#181818;stroke-width:1;"/><text fill="#000000" font-family="sans-serif" font-size="13" lengthAdjust="spacing" textLength="61.1851" x="396" y="258.0669">&#171;extend&#187;</text></g><!--link S to UC005--><g class="link" data-entity-1="S" data-entity-2="UC005" data-source-line="20" data-uid="lnk13" id="link_S_UC005"><path d="M76,150.82 C91.06,162.87 110.7,177.17 130,187 C148.5,196.43 169.61,204.26 189.28,210.46" fill="none" id="S-UC005" style="stroke:#181818;stroke-width:1;"/></g><!--link H to UC005--><g class="link" data-entity-1="H" data-entity-2="UC005" data-source-line="21" data-uid="lnk14" id="link_H_UC005"><path d="M91.19,241.6 C111.16,239.98 135.98,237.95 160.32,235.97" fill="none" id="H-UC005" style="stroke:#181818;stroke-width:1;"/></g><!--link H to UC002--><g class="link" data-entity-1="H" data-entity-2="UC002" data-source-line="28" data-uid="lnk19" id="link_H_UC002"><path d="M91.35,211.07 C103.35,202.41 116.77,193.67 130,187 C148.54,177.65 169.66,169.84 189.33,163.64" fill="none" id="H-UC002" style="stroke:#181818;stroke-width:1;"/></g><!--link H to UC008--><g class="link" data-entity-1="H" data-entity-2="UC008" data-source-line="29" data-uid="lnk20" id="link_H_UC008"><path d="M91.19,258 C121.85,267.56 163.97,280.69 198.21,291.36" fill="none" id="H-UC008" style="stroke:#181818;stroke-width:1;"/></g><!--link UC002 to UC006--><g class="link" data-entity-1="UC002" data-entity-2="UC006" data-source-line="31" data-uid="lnk21" id="link_UC002_UC006"><path d="M364.31,145.39 C413.09,145.11 464.4801,144.815 510.7701,144.545" fill="none" id="UC002-to-UC006" style="stroke:#181818;stroke-width:1;stroke-dasharray:7,7;"/><polygon fill="#181818" points="516.77,144.51,507.7468,140.5626,511.7701,144.5392,507.7935,148.5624,516.77,144.51" style="stroke:#181818;stroke-width:1;"/><text fill="#000000" font-family="sans-serif" font-size="13" lengthAdjust="spacing" textLength="63.0068" x="395" y="141.0669">&#171;include&#187;</text></g><!--link UC002 to UC007--><g class="link" data-entity-1="UC002" data-entity-2="UC007" data-source-line="32" data-uid="lnk22" id="link_UC002_UC007"><path d="M332.74,162.76 C388.69,175.64 460.0631,192.0833 517.6331,205.3433" fill="none" id="UC002-to-UC007" style="stroke:#181818;stroke-width:1;stroke-dasharray:7,7;"/><polygon fill="#181818" points="523.48,206.69,515.6074,200.772,518.6076,205.5677,513.8118,208.5679,523.48,206.69" style="stroke:#181818;stroke-width:1;"/><text fill="#000000" font-family="sans-serif" font-size="13" lengthAdjust="spacing" textLength="63.0068" x="395" y="175.0669">&#171;include&#187;</text></g><!--SRC=[NL7TIiCm5BxFKnnsfHSRitC_o1X8OUv2tR3p0RBaj0jcYIIdKn7VtQITiHGQIdA-y_sSex4a80jELKS2gHmAKjOmnWLP1mNL4Wq1zr1SdZRsXFR3e8kF6yPY1pULHXZazXazmKvpAgqx3U2R0OJlQgsC11vEWQ9s63Xghqnr7IbUy_7u9eAUE8bZWygjeI06soYJGBSjMG73OMfg_Z0QhLe4tC5ogOpGmVLgnI9hWJeOXA9Mn0_1v2LHOfsqqePN27kdk8P7TGxUO8TEMPbmqrPzywS-QUzDAHcOD0Rmaz38eDynE-tsJXjdsxACGmnvB_BzgMGTQx66y59hzAa-Q_Azer3bLmiuMYtXtdlbmqe49kGy8X_K6M6DA0zSlCMTzqUnO5sJMVUo-4-RfRIpthZxzNb_7J-_]--></g></svg>