<svg xmlns="http://www.w3.org/2000/svg" xmlns:xlink="http://www.w3.org/1999/xlink" contentStyleType="text/css" data-diagram-type="STATE" height="183px" preserveAspectRatio="none" style="width:847px;height:183px;background:#FFFFFF;" version="1.1" viewBox="0 0 847 183" width="847px" zoomAndPan="magnify"><defs/><g><ellipse cx="16" cy="33.5" fill="#222222" rx="10" ry="10" style="stroke:#222222;stroke-width:1;"/><rect fill="#FFFFFF" height="40" rx="12.5" ry="12.5" style="stroke:#000000;stroke-width:0.5;" width="101.5195" x="61" y="13.5"/><text fill="#000000" font-family="sans-serif" font-size="14" lengthAdjust="spacing" textLength="91.5195" x="66" y="38.3467">Listing_Rules</text><g id="Editing_Rules"><rect fill="#FFFFFF" height="52.5938" rx="12.5" ry="12.5" style="stroke:#000000;stroke-width:0.5;" width="185.7646" x="274" y="7"/><line style="stroke:#000000;stroke-width:0.5;" x1="274" x2="459.7646" y1="33.2969" y2="33.2969"/><text fill="#000000" font-family="sans-serif" font-size="14" lengthAdjust="spacing" textLength="94.1582" x="319.8032" y="24.9951">Editing_Rules</text><text fill="#000000" font-family="sans-serif" font-size="14" font-weight="bold" lengthAdjust="spacing" textLength="47.2979" x="279" y="51.292">entry/</text><text fill="#000000" font-family="sans-serif" font-size="14" lengthAdjust="spacing" textLength="114.0166" x="330.748" y="51.292">show categories</text></g><rect fill="#FFFFFF" height="40" rx="12.5" ry="12.5" style="stroke:#000000;stroke-width:0.5;" width="115.2598" x="170.5" y="137"/><text fill="#000000" font-family="sans-serif" font-size="14" lengthAdjust="spacing" textLength="105.2598" x="175.5" y="161.8467">Creating_Rules</text><rect fill="#FFFFFF" height="40" rx="12.5" ry="12.5" style="stroke:#000000;stroke-width:0.5;" width="80.54" x="626.5" y="13.5"/><text fill="#000000" font-family="sans-serif" font-size="14" lengthAdjust="spacing" textLength="70.54" x="631.5" y="38.3467">Validating</text><rect fill="#FFFFFF" height="40" rx="12.5" ry="12.5" style="stroke:#000000;stroke-width:0.5;" width="83.9854" x="625" y="137"/><text fill="#000000" font-family="sans-serif" font-size="14" lengthAdjust="spacing" textLength="73.9854" x="630" y="161.8467">Rules_Live</text><ellipse cx="830" cy="157" fill="none" rx="11" ry="11" style="stroke:#222222;stroke-width:1;"/><ellipse cx="830" cy="157" fill="#222222" rx="6" ry="6" style="stroke:#222222;stroke-width:1;"/><!--link *start* to Listing_Rules--><g class="link" data-entity-1=".start." data-entity-2="Listing_Rules" data-source-line="9" data-uid="lnk4" id="link_.start._Listing_Rules"><path d="M26.12,33.5 C37.64,33.5 43.16,33.5 54.68,33.5" fill="none" id="*start*-to-Listing_Rules" style="stroke:#000000;stroke-width:1;"/><polygon fill="#000000" points="60.68,33.5,51.68,29.5,55.68,33.5,51.68,37.5,60.68,33.5" style="stroke:#000000;stroke-width:1;"/></g><!--link Listing_Rules to Editing_Rules--><g class="link" data-entity-1="Listing_Rules" data-entity-2="Editing_Rules" data-source-line="10" data-uid="lnk6" id="link_Listing_Rules_Editing_Rules"><path d="M163.3,33.5 C195,33.5 230.64,33.5 268,33.5" fill="none" id="Listing_Rules-to-Editing_Rules" style="stroke:#000000;stroke-width:1;"/><polygon fill="#000000" points="274,33.5,265,29.5,269,33.5,265,37.5,274,33.5" style="stroke:#000000;stroke-width:1;"/><text fill="#000000" font-family="sans-serif" font-size="13" lengthAdjust="spacing" textLength="75.4419" x="181" y="26.5669">edit chosen</text></g><!--link Listing_Rules to Creating_Rules--><g class="link" data-entity-1="Listing_Rules" data-entity-2="Creating_Rules" data-source-line="11" data-uid="lnk8" id="link_Listing_Rules_Creating_Rules"><path d="M121.51,53.81 C129.76,69.31 142.76,91.05 158,107 C168.86,118.37 177.7162,125.4242 190.2362,133.6542" fill="none" id="Listing_Rules-to-Creating_Rules" style="stroke:#000000;stroke-width:1;"/><polygon fill="#000000" points="195.25,136.95,189.9266,128.6638,191.0719,134.2035,185.5322,135.3488,195.25,136.95" style="stroke:#000000;stroke-width:1;"/><text fill="#000000" font-family="sans-serif" font-size="13" lengthAdjust="spacing" textLength="115.5527" x="159" y="103.0669">needed not found</text></g><!--reverse link Editing_Rules to Creating_Rules--><g class="link" data-entity-1="Editing_Rules" data-entity-2="Creating_Rules" data-source-line="13" data-uid="lnk10" id="link_Editing_Rules_Creating_Rules"><path d="M333.0026,64.2188 C306.8626,87.0688 273.79,115.98 250.14,136.65" fill="none" id="Editing_Rules-backto-Creating_Rules" style="stroke:#000000;stroke-width:1;"/><polygon fill="#000000" points="337.52,60.27,328.1114,63.1816,333.7555,63.5607,333.3765,69.2048,337.52,60.27" style="stroke:#000000;stroke-width:1;"/><text fill="#000000" font-family="sans-serif" font-size="13" lengthAdjust="spacing" textLength="85.9028" x="303" y="103.0669">rules created</text></g><!--link Editing_Rules to Validating--><g class="link" data-entity-1="Editing_Rules" data-entity-2="Validating" data-source-line="15" data-uid="lnk12" id="link_Editing_Rules_Validating"><path d="M460.2,50.67 C498.52,55.5 543.31,58.29 583.75,53.5 C597.77,51.84 607.0286,50.1132 620.4486,46.7632" fill="none" id="Editing_Rules-to-Validating" style="stroke:#000000;stroke-width:1;"/><polygon fill="#000000" points="626.27,45.31,616.5692,43.6088,621.4189,46.521,618.5067,51.3707,626.27,45.31" style="stroke:#000000;stroke-width:1;"/><text fill="#000000" font-family="sans-serif" font-size="13" lengthAdjust="spacing" textLength="79.8599" x="503.75" y="49.5669">save clicked</text></g><!--reverse link Editing_Rules to Validating--><g class="link" data-entity-1="Editing_Rules" data-entity-2="Validating" data-source-line="16" data-uid="lnk14" id="link_Editing_Rules_Validating"><path d="M466.28,33.5 C522.01,33.5 583.99,33.5 626.39,33.5" fill="none" id="Editing_Rules-backto-Validating" style="stroke:#000000;stroke-width:1;"/><polygon fill="#000000" points="460.28,33.5,469.28,37.5,465.28,33.5,469.28,29.5,460.28,33.5" style="stroke:#000000;stroke-width:1;"/><text fill="#000000" font-family="sans-serif" font-size="13" lengthAdjust="spacing" textLength="130.2603" x="478.25" y="26.5669">missing safety rules</text></g><!--link Validating to Rules_Live--><g class="link" data-entity-1="Validating" data-entity-2="Rules_Live" data-source-line="18" data-uid="lnk16" id="link_Validating_Rules_Live"><path d="M667,53.75 C667,76.5 667,108.13 667,130.84" fill="none" id="Validating-to-Rules_Live" style="stroke:#000000;stroke-width:1;"/><polygon fill="#000000" points="667,136.84,671,127.84,667,131.84,663,127.84,667,136.84" style="stroke:#000000;stroke-width:1;"/><text fill="#000000" font-family="sans-serif" font-size="13" lengthAdjust="spacing" textLength="67.2344" x="668" y="103.0669">rules valid</text></g><!--link Rules_Live to *end*--><g class="link" data-entity-1="Rules_Live" data-entity-2=".end." data-source-line="19" data-uid="lnk18" id="link_Rules_Live_.end."><path d="M709.4,157 C746.19,157 790.91,157 812.99,157" fill="none" id="Rules_Live-to-*end*" style="stroke:#000000;stroke-width:1;"/><polygon fill="#000000" points="818.99,157,809.99,153,813.99,157,809.99,161,818.99,157" style="stroke:#000000;stroke-width:1;"/><text fill="#000000" font-family="sans-serif" font-size="13" lengthAdjust="spacing" textLength="73.3535" x="727.5" y="150.0669">rules ready</text></g><!--SRC=[RL1DQyCm3BtxL-WS26EmKm-3jModdZhO3cCKOok9Q685sMd8nlxxb9IM9DGNe_SXFIcUABHMR0CnsOJmQq3VrhfJATm5l-EQ1JuhIdXXM3pA1TtMAflG5n7kr-0RX_HEFmYFJ-RFLEGHi6dJ01wZ4seJSJ3cA_k6_1ds51E5ydZeQencKK4kL5P9HQ-UPl06K6jm5KSCQukgTu9s8G-87Zq4Jb2CkncpakHTUsUAJByRfQYU9NtBzc5hybCpjKHxHd0rkPCwPanUOt5laOPY7Fbe2zG3JHFDmkYv3sgS3CSzQVjhiFEeCZFY5cayxLMbwVsm3h-1BCEGP7Z8CeWLz-1qnvA5CFu3]--></g></svg>