<svg xmlns="http://www.w3.org/2000/svg" xmlns:xlink="http://www.w3.org/1999/xlink" contentStyleType="text/css" data-diagram-type="STATE" height="300px" preserveAspectRatio="none" style="width:707px;height:300px;background:#FFFFFF;" version="1.1" viewBox="0 0 707 300" width="707px" zoomAndPan="magnify"><defs/><g><ellipse cx="304.5" cy="27" fill="#222222" rx="10" ry="10" style="stroke:#222222;stroke-width:1;"/><rect fill="#FFFFFF" height="40" rx="12.5" ry="12.5" style="stroke:#000000;stroke-width:0.5;" width="96.6523" x="350" y="7"/><text fill="#000000" font-family="sans-serif" font-size="14" lengthAdjust="spacing" textLength="86.6523" x="355" y="31.8467">Listing_View</text><g id="Writing_Message"><rect fill="#FFFFFF" height="52.5938" rx="12.5" ry="12.5" style="stroke:#000000;stroke-width:0.5;" width="203.1006" x="7" y="124"/><line style="stroke:#000000;stroke-width:0.5;" x1="7" x2="210.1006" y1="150.2969" y2="150.2969"/><text fill="#000000" font-family="sans-serif" font-size="14" lengthAdjust="spacing" textLength="118.9863" x="49.0571" y="141.9951">Writing_Message</text><text fill="#000000" font-family="sans-serif" font-size="14" lengthAdjust="spacing" textLength="183.1006" x="12" y="168.292">entry/ open chat interface</text></g><rect fill="#FFFFFF" height="40" rx="12.5" ry="12.5" style="stroke:#000000;stroke-width:0.5;" width="88.7363" x="558" y="130.5"/><text fill="#000000" font-family="sans-serif" font-size="14" lengthAdjust="spacing" textLength="78.7363" x="563" y="155.3467">Error_State</text><rect fill="#FFFFFF" height="40" rx="12.5" ry="12.5" style="stroke:#000000;stroke-width:0.5;" width="80.54" x="352" y="130.5"/><text fill="#000000" font-family="sans-serif" font-size="14" lengthAdjust="spacing" textLength="70.54" x="357" y="155.3467">Validating</text><rect fill="#FFFFFF" height="40" rx="12.5" ry="12.5" style="stroke:#000000;stroke-width:0.5;" width="110.2217" x="324.5" y="254"/><text fill="#000000" font-family="sans-serif" font-size="14" lengthAdjust="spacing" textLength="100.2217" x="329.5" y="278.8467">Message_Sent</text><ellipse cx="610.5" cy="274" fill="none" rx="11" ry="11" style="stroke:#222222;stroke-width:1;"/><ellipse cx="610.5" cy="274" fill="#222222" rx="6" ry="6" style="stroke:#222222;stroke-width:1;"/><!--link *start* to Listing_View--><g class="link" data-entity-1=".start." data-entity-2="Listing_View" data-source-line="9" data-uid="lnk4" id="link_.start._Listing_View"><path d="M314.78,27 C326.45,27 332.11,27 343.77,27" fill="none" id="*start*-to-Listing_View" style="stroke:#000000;stroke-width:1;"/><polygon fill="#000000" points="349.77,27,340.77,23,344.77,27,340.77,31,349.77,27" style="stroke:#000000;stroke-width:1;"/></g><!--link Listing_View to Writing_Message--><g class="link" data-entity-1="Listing_View" data-entity-2="Writing_Message" data-source-line="10" data-uid="lnk6" id="link_Listing_View_Writing_Message"><path d="M352.87,47.12 C303.42,67.83 229.804,98.6817 175.044,121.6217" fill="none" id="Listing_View-to-Writing_Message" style="stroke:#000000;stroke-width:1;"/><polygon fill="#000000" points="169.51,123.94,179.3566,124.1519,174.1217,122.0081,176.2655,116.7732,169.51,123.94" style="stroke:#000000;stroke-width:1;"/><text fill="#000000" font-family="sans-serif" font-size="13" lengthAdjust="spacing" textLength="99.1313" x="280.5" y="90.0669">contact chosen</text></g><!--link Listing_View to Error_State--><g class="link" data-entity-1="Listing_View" data-entity-2="Error_State" data-source-line="11" data-uid="lnk8" id="link_Listing_View_Error_State"><path d="M430.82,47.25 C469.02,70 527.0347,104.5603 565.1747,127.2703" fill="none" id="Listing_View-to-Error_State" style="stroke:#000000;stroke-width:1;"/><polygon fill="#000000" points="570.33,130.34,564.6435,122.2986,566.0339,127.7819,560.5506,129.1724,570.33,130.34" style="stroke:#000000;stroke-width:1;"/><text fill="#000000" font-family="sans-serif" font-size="13" lengthAdjust="spacing" textLength="118.4854" x="508.5" y="90.0669">listing unavailable</text></g><!--link Writing_Message to Validating--><g class="link" data-entity-1="Writing_Message" data-entity-2="Validating" data-source-line="14" data-uid="lnk10" id="link_Writing_Message_Validating"><path d="M210.26,169.63 C245.7,173.76 285.68,175.55 322,170.5 C331.83,169.13 336.424,168.3283 346.114,165.6683" fill="none" id="Writing_Message-to-Validating" style="stroke:#000000;stroke-width:1;"/><polygon fill="#000000" points="351.9,164.08,342.1622,162.6051,347.0784,165.4036,344.2799,170.3198,351.9,164.08" style="stroke:#000000;stroke-width:1;"/><text fill="#000000" font-family="sans-serif" font-size="13" lengthAdjust="spacing" textLength="80.6914" x="241" y="166.5669">send clicked</text></g><!--reverse link Writing_Message to Validating--><g class="link" data-entity-1="Writing_Message" data-entity-2="Validating" data-source-line="15" data-uid="lnk12" id="link_Writing_Message_Validating"><path d="M216.23,150.5 C265.09,150.5 314.89,150.5 351.74,150.5" fill="none" id="Writing_Message-backto-Validating" style="stroke:#000000;stroke-width:1;"/><polygon fill="#000000" points="210.23,150.5,219.23,154.5,215.23,150.5,219.23,146.5,210.23,150.5" style="stroke:#000000;stroke-width:1;"/><text fill="#000000" font-family="sans-serif" font-size="13" lengthAdjust="spacing" textLength="105.5425" x="228.5" y="143.5669">invalid message</text></g><!--link Validating to Message_Sent--><g class="link" data-entity-1="Validating" data-entity-2="Message_Sent" data-source-line="17" data-uid="lnk14" id="link_Validating_Message_Sent"><path d="M390.44,170.75 C388.01,193.5 384.6184,225.1641 382.1884,247.8741" fill="none" id="Validating-to-Message_Sent" style="stroke:#000000;stroke-width:1;"/><polygon fill="#000000" points="381.55,253.84,386.4848,245.3167,382.082,248.8684,378.5302,244.4655,381.55,253.84" style="stroke:#000000;stroke-width:1;"/><text fill="#000000" font-family="sans-serif" font-size="13" lengthAdjust="spacing" textLength="123.3159" x="387.5" y="220.0669">message delivered</text></g><!--link Validating to Error_State--><g class="link" data-entity-1="Validating" data-entity-2="Error_State" data-source-line="18" data-uid="lnk15" id="link_Validating_Error_State"><path d="M433.24,150.5 C469.02,150.5 514.98,150.5 551.88,150.5" fill="none" id="Validating-to-Error_State" style="stroke:#000000;stroke-width:1;"/><polygon fill="#000000" points="557.88,150.5,548.88,146.5,552.88,150.5,548.88,154.5,557.88,150.5" style="stroke:#000000;stroke-width:1;"/><text fill="#000000" font-family="sans-serif" font-size="13" lengthAdjust="spacing" textLength="88.7974" x="451.5" y="143.5669">contact failed</text></g><!--link Message_Sent to *end*--><g class="link" data-entity-1="Message_Sent" data-entity-2=".end." data-source-line="20" data-uid="lnk17" id="link_Message_Sent_.end."><path d="M434.54,274 C489.52,274 563.95,274 593.28,274" fill="none" id="Message_Sent-to-*end*" style="stroke:#000000;stroke-width:1;"/><polygon fill="#000000" points="599.28,274,590.28,270,594.28,274,590.28,278,599.28,274" style="stroke:#000000;stroke-width:1;"/><text fill="#000000" font-family="sans-serif" font-size="13" lengthAdjust="spacing" textLength="128.375" x="453" y="267.0669">confirmation shown</text></g><!--link Error_State to *end*--><g class="link" data-entity-1="Error_State" data-entity-2=".end." data-source-line="21" data-uid="lnk18" id="link_Error_State_.end."><path d="M603.77,170.75 C605.49,196.85 608.0946,236.523 609.4346,256.813" fill="none" id="Error_State-to-*end*" style="stroke:#000000;stroke-width:1;"/><polygon fill="#000000" points="609.83,262.8,613.2282,253.556,609.5005,257.8109,605.2456,254.0832,609.83,262.8" style="stroke:#000000;stroke-width:1;"/><text fill="#000000" font-family="sans-serif" font-size="13" lengthAdjust="spacing" textLength="92.4219" x="607.5" y="220.0669">use case ends</text></g><!--SRC=[RL5DQyCm3BtxL-WyA6EmKm-3TModzLHe3sC4pLOIKSSEijFGZVttAKbR-Z4V37vwx-b9JbiEBGesa39cWXy3UXPejvN4BhYNwAF0fkPCKoMA8vdGXLVQY3wBnFuQV8iXh_YRuE7H_9gQ7G4rRTw3esI5symn6FDnzmcp9tZdb3bKnPgfD-SFc0bNTLRAHdX4bvGILWHpiDe1RGPRnqJXIgQALuqbnMeSR0v-AaCNS8ViySkJCRUc5BBixo6s5DGOCt3892LQkY6VegtHiyFHVGuQnO7rRBVap5bbvgdyVmuEku46pOIO2vMBVL3LWLsiD9zA3bJTfUSToLMdOwxB1HpNLUhqAZ0NbYVDy24ZjsHfSFWaIBLcCETcnrGJkKi45lNIoTCV]--></g></svg>